<svg width="512" height="512" xmlns="http://www.w3.org/2000/svg" version="1.1">

 <g>
  <title>Layer 1</title>
  <path id="svg_1" fill="#fd3f92" d="m301,102c3.52185,1.97678 5.69957,4.09871 7,8c0.09412,1.63546 0.1309,3.2745 0.13422,4.91266c0.00446,1.01942 0.00892,2.03884 0.01351,3.08916c-0.00018,1.12333 -0.00037,2.24665 -0.00056,3.40402c0.00368,1.19073 0.00735,2.38145 0.01114,3.60826c0.00913,3.31091 0.01374,6.62178 0.01639,9.9327c0.0039,3.56861 0.01348,7.1372 0.02221,10.7058c0.01977,8.62028 0.02983,17.24056 0.03873,25.86086c0.00438,4.05823 0.00975,8.11646 0.01499,12.17469c0.01701,13.48786 0.03151,26.97572 0.03875,40.46359c0.00191,3.50028 0.00383,7.00056 0.00579,10.50085c0.00048,0.86999 0.00096,1.73998 0.00146,2.63633c0.00831,14.09929 0.03365,28.1985 0.06612,42.29775c0.03305,14.47106 0.05108,28.94208 0.05427,43.41319c0.00217,8.1268 0.01094,16.25348 0.03647,24.38025c0.02168,6.91971 0.02976,13.83926 0.02003,20.759c-0.00455,3.53092 -0.00261,7.06153 0.01676,10.59241c0.02082,3.82736 0.01067,7.65429 -0.00253,11.48169c0.01097,1.11663 0.02194,2.23327 0.03324,3.38374c-0.05099,6.10387 -0.36338,9.7996 -4.52099,14.40305c-3.69249,2.46166 -6.71511,2.80847 -11,2c-3.52488,-1.96667 -5.70121,-4.10364 -7,-8c-0.09329,-1.63641 -0.12911,-3.27638 -0.13143,-4.91545c-0.00384,-1.02004 -0.00768,-2.04008 -0.01164,-3.09103c0.00087,-1.12401 0.00174,-2.24802 0.00263,-3.40609c-0.00297,-1.19143 -0.00594,-2.38286 -0.00901,-3.6104c-0.00718,-3.31284 -0.00986,-6.62564 -0.01059,-9.93848c-0.00185,-3.57064 -0.0094,-7.14126 -0.01614,-10.71189c-0.01359,-7.80982 -0.01961,-15.61964 -0.02401,-23.42948c-0.00276,-4.87476 -0.007,-9.74951 -0.0115,-14.62427c-0.0122,-13.49215 -0.0225,-26.9843 -0.02588,-40.47646c-0.00022,-0.86368 -0.00044,-1.72736 -0.00066,-2.61721c-0.00033,-1.29865 -0.00033,-1.29865 -0.00066,-2.62353c-0.00045,-1.75441 -0.00089,-3.50882 -0.00134,-5.26323c-0.00023,-0.87025 -0.00045,-1.7405 -0.00068,-2.63713c-0.00394,-14.10641 -0.0214,-28.21278 -0.04468,-42.31917c-0.0237,-14.47671 -0.03618,-28.9534 -0.03735,-43.43013c-0.00091,-8.13065 -0.00668,-16.26125 -0.02482,-24.39189c-0.01538,-6.92228 -0.02053,-13.84447 -0.01226,-20.76677c0.00392,-3.53277 0.00295,-7.06537 -0.01105,-10.59812c-0.01504,-3.82765 -0.0069,-7.65506 0.00358,-11.48274c-0.00806,-1.11954 -0.01612,-2.23909 -0.02442,-3.39256c0.00659,-1.02526 0.01318,-2.05051 0.01997,-3.10684c-0.00059,-0.8835 -0.00119,-1.767 -0.00181,-2.67728c0.57738,-3.84642 2.44603,-6.49341 5.06125,-9.30235c3.4238,-1.75817 6.605,-1.96316 10.3125,-1.1875z"/>
  <path id="svg_2" fill="#fd3f92" d="m341,153c3.24377,1.68426 5.413,2.90106 7.15558,6.1634c1.05472,3.54305 1.12453,6.87363 1.10512,10.5347c0.00382,0.76775 0.00765,1.5355 0.01159,2.32651c0.01031,2.56861 0.00634,5.13699 0.00237,7.70561c0.00435,1.8432 0.00953,3.6864 0.01549,5.52959c0.01339,5.0041 0.01396,10.00813 0.01143,15.01224c-0.00107,4.17753 0.00382,8.35504 0.00861,12.53257c0.01109,9.85509 0.01153,19.71015 0.00548,29.56525c-0.00604,10.16734 0.00628,20.33454 0.02757,30.50185c0.01762,8.72965 0.02362,17.45925 0.02037,26.18891c-0.00182,5.2137 0.00083,10.4273 0.01471,15.64098c0.01257,4.90265 0.01065,9.80509 -0.00241,14.70774c-0.00237,1.79871 0.00038,3.59744 0.00862,5.39613c0.01045,2.45673 0.00238,4.91273 -0.01031,7.36943c0.00738,0.71061 0.01475,1.42122 0.02235,2.15337c-0.05009,4.61289 -0.9943,7.74308 -3.39657,11.67172c-2.37303,2.16365 -3.9665,2.95563 -7.18359,3.09375c-3.84781,-0.25273 -6.19055,-0.62436 -9.31641,-2.96875c-2.85316,-4.04197 -2.6461,-7.91983 -2.64044,-12.66525c-0.00297,-0.77491 -0.00594,-1.54982 -0.00901,-2.34822c-0.00869,-2.60473 -0.01019,-5.20942 -0.01168,-7.81417c-0.00463,-1.86423 -0.00966,-3.72845 -0.01505,-5.59268c-0.01313,-5.07024 -0.01957,-10.14047 -0.02401,-15.21073c-0.00293,-3.16616 -0.00703,-6.33231 -0.0115,-9.49847c-0.01368,-9.90184 -0.02335,-19.80368 -0.0272,-29.70553c-0.00449,-11.43855 -0.02205,-22.87699 -0.05101,-34.31551c-0.02159,-8.83658 -0.0317,-17.67313 -0.03304,-26.50975c-0.00105,-5.28021 -0.00698,-10.56032 -0.02482,-15.84051c-0.01644,-4.96581 -0.01865,-9.93142 -0.00986,-14.89725c0.00078,-1.82332 -0.00359,-3.64665 -0.01345,-5.46995c-0.01267,-2.48782 -0.00688,-4.97494 0.00358,-7.46276c-0.00806,-0.72267 -0.01612,-1.44534 -0.02442,-2.18991c0.04307,-4.37864 0.72785,-7.11128 3.39191,-10.60431c3.66939,-2.87601 6.37381,-3.66088 11,-3z"/>
  <path id="svg_3" fill="#fd3f92" d="m262.25,154.75c2.74239,2.24378 3.58537,3.02738 4.75,6.25c0.19336,2.58753 0.2785,5.06685 0.26743,7.65378c0.00453,0.77506 0.00906,1.55012 0.01373,2.34866c0.01267,2.59935 0.01102,5.19848 0.00937,7.79785c0.00598,1.86276 0.01279,3.72551 0.02035,5.58826c0.01769,5.062 0.02236,10.12393 0.02363,15.18596c0.0019,4.2247 0.00926,8.44939 0.01635,12.67408c0.01629,9.96679 0.02117,19.93354 0.01975,29.90034c-0.00121,10.28379 0.0199,20.56738 0.05148,30.85113c0.02615,8.82728 0.03688,17.6545 0.0356,26.48183c-0.00051,5.273 0.00521,10.54581 0.02636,15.81877c0.01935,4.95931 0.01953,9.91826 0.00497,14.87759c-0.0021,1.81968 0.00264,3.63938 0.01472,5.45902c0.01543,2.48543 0.00616,4.96959 -0.00926,7.45498c0.01028,0.71908 0.02057,1.43815 0.03117,2.17902c-0.06873,5.01658 -1.40303,7.84963 -4.52565,11.72873c-3.20785,2.35242 -6.09649,2.46842 -10,2c-3.95801,-2.13124 -6.46445,-3.75101 -8,-8c-0.19336,-2.58753 -0.2785,-5.06685 -0.26743,-7.65378c-0.00453,-0.77506 -0.00906,-1.55012 -0.01373,-2.34866c-0.01267,-2.59935 -0.01102,-5.19848 -0.00937,-7.79785c-0.00598,-1.86276 -0.01279,-3.72551 -0.02035,-5.58826c-0.01769,-5.062 -0.02236,-10.12393 -0.02363,-15.18596c-0.0019,-4.2247 -0.00926,-8.44939 -0.01635,-12.67408c-0.01629,-9.96679 -0.02117,-19.93354 -0.01975,-29.90034c0.00121,-10.28379 -0.0199,-20.56738 -0.05148,-30.85113c-0.02615,-8.82728 -0.03688,-17.6545 -0.0356,-26.48183c0.00051,-5.273 -0.00521,-10.54581 -0.02636,-15.81877c-0.01935,-4.95931 -0.01953,-9.91826 -0.00497,-14.87759c0.0021,-1.81968 -0.00264,-3.63938 -0.01472,-5.45902c-0.01543,-2.48543 -0.00616,-4.96959 0.00926,-7.45498c-0.01028,-0.71908 -0.02057,-1.43815 -0.03117,-2.17902c0.06873,-5.01658 1.40303,-7.84963 4.52565,-11.72873c4.35985,-3.19723 8.64425,-2.73002 13.25,-0.25z"/>
  <path id="svg_4" fill="#fd3f92" d="m423,153c3.59251,1.79625 5.53968,2.93843 7.15558,6.66496c0.94818,3.74485 1.12577,7.23706 1.10512,11.07074c0.00382,0.75973 0.00765,1.51946 0.01159,2.30221c0.01028,2.53553 0.00635,5.07083 0.00237,7.60638c0.00435,1.82202 0.00953,3.64403 0.01549,5.46605c0.01338,4.94212 0.01397,9.88417 0.01143,14.82631c-0.00107,4.12778 0.00382,8.25554 0.00861,12.38332c0.01109,9.73865 0.01153,19.47726 0.00548,29.21592c-0.00604,10.04294 0.00628,20.08574 0.02757,30.12865c0.01762,8.62692 0.02362,17.2538 0.02037,25.88073c-0.00182,5.15056 0.00082,10.30102 0.01471,15.45157c0.01258,4.84357 0.01064,9.68693 -0.00241,14.5305c-0.00237,1.77571 0.00037,3.55145 0.00862,5.32714c0.01047,2.42787 0.00237,4.855 -0.01031,7.28283c0.00738,0.69924 0.01475,1.39847 0.02235,2.11889c-0.05484,5.00781 -1.14562,8.36116 -3.39657,12.7438c-2.37826,2.23836 -3.92117,2.95561 -7.18359,3.08984c-3.84869,-0.24646 -6.19057,-0.62046 -9.31641,-2.96484c-2.85316,-4.04197 -2.6461,-7.91983 -2.64044,-12.66525c-0.00297,-0.77491 -0.00594,-1.54982 -0.00901,-2.34822c-0.00869,-2.60473 -0.01019,-5.20942 -0.01168,-7.81417c-0.00463,-1.86423 -0.00966,-3.72845 -0.01505,-5.59268c-0.01313,-5.07024 -0.01957,-10.14047 -0.02401,-15.21073c-0.00293,-3.16616 -0.00703,-6.33231 -0.0115,-9.49847c-0.01368,-9.90184 -0.02335,-19.80368 -0.0272,-29.70553c-0.00449,-11.43855 -0.02205,-22.87699 -0.05101,-34.31551c-0.02159,-8.83658 -0.0317,-17.67313 -0.03304,-26.50975c-0.00105,-5.28021 -0.00698,-10.56032 -0.02482,-15.84051c-0.01644,-4.96581 -0.01865,-9.93142 -0.00986,-14.89725c0.00078,-1.82332 -0.00359,-3.64665 -0.01345,-5.46995c-0.01267,-2.48782 -0.00688,-4.97494 0.00358,-7.46276c-0.00806,-0.72267 -0.01612,-1.44534 -0.02442,-2.18991c0.04307,-4.37864 0.72785,-7.11128 3.39191,-10.60431c3.66939,-2.87601 6.37381,-3.66088 11,-3z"/>
  <path id="svg_5" fill="#fd3f92" d="m98,154c2.99452,2.24589 3.81623,3.44869 5,7c0.09978,2.52254 0.14345,5.01754 0.14044,7.54025c0.00297,0.77491 0.00594,1.54982 0.00901,2.34822c0.00869,2.60473 0.01019,5.20942 0.01168,7.81417c0.00463,1.86423 0.00966,3.72845 0.01505,5.59268c0.01313,5.07024 0.01957,10.14047 0.02401,15.21073c0.00293,3.16616 0.00703,6.33231 0.0115,9.49847c0.01368,9.90184 0.02335,19.80368 0.0272,29.70553c0.00449,11.43855 0.02205,22.87699 0.05101,34.31551c0.02159,8.83658 0.0317,17.67313 0.03304,26.50975c0.00105,5.28021 0.00698,10.56032 0.02482,15.84051c0.01644,4.96581 0.01865,9.93142 0.00986,14.89725c-0.00078,1.82332 0.00359,3.64665 0.01345,5.46995c0.01267,2.48782 0.00688,4.97494 -0.00358,7.46276c0.00806,0.72267 0.01612,1.44534 0.02442,2.18991c-0.04307,4.37864 -0.72785,7.11128 -3.39191,10.60431c-2.71425,2.12738 -4.52393,2.9291 -7.9375,3.4375c-3.98933,-0.5699 -6.01972,-1.80964 -9.0625,-4.4375c-1.98263,-4.57225 -2.28716,-8.82329 -2.2607,-13.7357c-0.00382,-0.75973 -0.00765,-1.51946 -0.01159,-2.30221c-0.01028,-2.53553 -0.00635,-5.07083 -0.00237,-7.60638c-0.00435,-1.82202 -0.00953,-3.64403 -0.01549,-5.46605c-0.01338,-4.94212 -0.01397,-9.88417 -0.01143,-14.82631c0.00107,-4.12778 -0.00382,-8.25554 -0.00861,-12.38332c-0.01109,-9.73865 -0.01153,-19.47726 -0.00548,-29.21592c0.00604,-10.04294 -0.00628,-20.08574 -0.02757,-30.12865c-0.01762,-8.62692 -0.02362,-17.2538 -0.02037,-25.88073c0.00182,-5.15056 -0.00082,-10.30102 -0.01471,-15.45157c-0.01258,-4.84357 -0.01064,-9.68693 0.00241,-14.5305c0.00237,-1.77571 -0.00037,-3.55145 -0.00862,-5.32714c-0.01047,-2.42787 -0.00237,-4.855 0.01031,-7.28283c-0.00738,-0.69924 -0.01475,-1.39847 -0.02235,-2.11889c0.05484,-5.00781 1.14562,-8.36116 3.39657,-12.7438c4.15944,-3.91477 8.77547,-3.45506 14,-2z"/>
  <path id="svg_6" fill="#fd3f92" d="m221,195c2.64014,2.57413 4.86934,5.13479 5.13422,8.91601c0.00427,0.78679 0.00855,1.57359 0.01295,2.38422c0.00716,0.90281 0.01431,1.80562 0.02168,2.73578c0.00404,1.4899 0.00404,1.4899 0.00815,3.00989c0.00657,1.04404 0.01314,2.08808 0.01991,3.16376c0.01977,3.46657 0.03141,6.9331 0.04137,10.39972c0.00408,1.18219 0.00815,2.36438 0.01235,3.5824c0.02088,6.25736 0.03517,12.5147 0.04454,18.77209c0.01106,6.46769 0.04546,12.93504 0.08517,19.40261c0.02613,4.96883 0.03451,9.93758 0.03811,14.90648c0.00487,2.38423 0.01651,4.76846 0.03504,7.15263c0.02431,3.33726 0.02344,6.67362 0.01648,10.01093c0.01281,0.98517 0.02562,1.97034 0.03882,2.98536c-0.04438,5.84143 -0.65242,9.1097 -4.50879,13.57812c-3.61395,2.5312 -6.65195,2.18674 -10.875,1.61719c-3.2382,-0.94051 -4.46506,-2.78146 -6.125,-5.61719c-1.16585,-2.33171 -1.13306,-3.7025 -1.14717,-6.30023c-0.00716,-0.90281 -0.01431,-1.80562 -0.02168,-2.73578c-0.00269,-0.99326 -0.00538,-1.98653 -0.00815,-3.00989c-0.00657,-1.04404 -0.01314,-2.08808 -0.01991,-3.16376c-0.01977,-3.46657 -0.03141,-6.9331 -0.04137,-10.39971c-0.00408,-1.1822 -0.00815,-2.36439 -0.01235,-3.58241c-0.02088,-6.25736 -0.03517,-12.5147 -0.04454,-18.77209c-0.01106,-6.46769 -0.04546,-12.93504 -0.08517,-19.40261c-0.02613,-4.96883 -0.03451,-9.93758 -0.03811,-14.90648c-0.00487,-2.38423 -0.01651,-4.76846 -0.03504,-7.15263c-0.02431,-3.33726 -0.02344,-6.67362 -0.01648,-10.01093c-0.01281,-0.98517 -0.02562,-1.97034 -0.03882,-2.98535c0.04438,-5.84144 0.65242,-9.10971 4.50879,-13.57813c4.08449,-2.86077 8.36775,-2.3454 13,-1z"/>
  <path id="svg_7" fill="#fd3f92" d="m382,194c3.15725,1.63934 5.3597,2.88717 7.15471,6.00685c1.24253,4.39976 1.13165,8.64498 1.11995,13.19603c0.00766,1.53746 0.00766,1.53746 0.01549,3.10597c0.01389,3.38539 0.01294,6.77058 0.01063,10.15599c0.00389,2.35503 0.00822,4.71006 0.01299,7.06508c0.00746,4.93528 0.00717,9.87049 0.0019,14.80577c-0.00579,6.32296 0.01114,12.64562 0.03435,18.96853c0.01473,4.86332 0.01561,9.72658 0.01249,14.58992c0.00051,2.33118 0.00575,4.66237 0.01581,6.99354c0.01234,3.26021 0.00559,6.51984 -0.00601,9.78004c0.01147,1.44263 0.01147,1.44263 0.02317,2.9144c-0.04108,5.22935 -0.45787,8.9001 -3.39548,13.41788c-2.37303,2.16365 -3.9665,2.95563 -7.18359,3.09375c-3.84781,-0.25273 -6.19055,-0.62436 -9.31641,-2.96875c-2.2492,-3.18636 -2.62611,-5.75904 -2.64044,-9.55222c-0.00571,-0.90562 -0.01142,-1.81125 -0.01731,-2.74432c-0.00111,-0.99124 -0.00223,-1.98248 -0.00338,-3.00375c-0.00497,-1.0458 -0.00993,-2.09159 -0.01505,-3.16907c-0.01463,-3.46595 -0.02142,-6.93185 -0.02695,-10.39783c-0.00575,-2.40512 -0.0115,-4.81024 -0.01727,-7.21536c-0.01051,-5.04556 -0.01635,-10.09111 -0.01983,-15.13669c-0.00549,-6.46882 -0.02953,-12.93743 -0.05798,-19.40619c-0.01861,-4.96878 -0.02383,-9.93752 -0.02536,-14.90634c-0.00303,-2.38505 -0.01107,-4.7701 -0.02419,-7.15512c-0.01703,-3.33484 -0.01518,-6.66916 -0.00869,-10.00403c-0.00921,-0.98719 -0.01842,-1.97438 -0.02792,-2.99148c0.03026,-4.9508 0.09007,-8.4601 3.38437,-12.4426c3.66939,-2.87601 6.37381,-3.66088 11,-3z"/>
  <path id="svg_8" fill="#fd3f92" d="m139,195c2.99452,2.24589 3.81623,3.44869 5,7c0.09484,1.47343 0.13486,2.95075 0.14044,4.42722c0.00857,1.35844 0.00857,1.35844 0.01731,2.74432c0.00111,0.99124 0.00223,1.98248 0.00338,3.00375c0.00497,1.0458 0.00993,2.09159 0.01505,3.16907c0.01463,3.46595 0.02142,6.93185 0.02695,10.39783c0.00575,2.40512 0.0115,4.81024 0.01727,7.21536c0.01051,5.04556 0.01635,10.09111 0.01983,15.13669c0.00549,6.46882 0.02953,12.93743 0.05798,19.40619c0.01861,4.96878 0.02383,9.93752 0.02536,14.90634c0.00303,2.38505 0.01107,4.7701 0.02419,7.15512c0.01703,3.33484 0.01518,6.66916 0.00869,10.00403c0.00921,0.98719 0.01842,1.97438 0.02792,2.99148c-0.03026,4.9508 -0.09007,8.4601 -3.38437,12.4426c-2.71425,2.12738 -4.52393,2.9291 -7.9375,3.4375c-3.95597,-0.56514 -6.01623,-1.87586 -9.0625,-4.4375c-2.73444,-4.75237 -2.28833,-9.88461 -2.27466,-15.20288c-0.00511,-1.02497 -0.01022,-2.04994 -0.01549,-3.10597c-0.01389,-3.38539 -0.01294,-6.77058 -0.01063,-10.15599c-0.00389,-2.35503 -0.00822,-4.71006 -0.01299,-7.06508c-0.00746,-4.93528 -0.00717,-9.87049 -0.0019,-14.80577c0.00579,-6.32296 -0.01114,-12.64562 -0.03435,-18.96853c-0.01473,-4.86332 -0.01561,-9.72658 -0.01249,-14.58992c-0.00051,-2.33118 -0.00575,-4.66237 -0.01581,-6.99354c-0.01234,-3.26021 -0.00559,-6.51984 0.00601,-9.78004c-0.00765,-0.96176 -0.01529,-1.92351 -0.02317,-2.9144c0.04108,-5.22935 0.45787,-8.9001 3.39548,-13.41788c4.23741,-3.86352 8.73946,-3.46508 14,-2z"/>
  <path id="svg_9" fill="#fd3f92" d="m464,194c3.49952,1.74976 5.50406,2.91934 7.15471,6.51613c1.11253,4.58531 1.13234,8.89896 1.11995,13.60081c0.00766,1.50601 0.00766,1.50601 0.01549,3.04244c0.01387,3.31021 0.01294,6.62022 0.01063,9.93046c0.00389,2.30637 0.00822,4.61273 0.01299,6.91909c0.00745,4.83095 0.00717,9.66183 0.0019,14.49278c-0.00579,6.18495 0.01115,12.3696 0.03435,18.55449c0.01474,4.76214 0.01561,9.52421 0.01249,14.28636c0.00051,2.28012 0.00574,4.56025 0.01581,6.84035c0.01236,3.19044 0.00558,6.38031 -0.00601,9.57075c0.01147,1.40683 0.01147,1.40683 0.02317,2.84207c-0.04458,5.56719 -0.73959,9.47942 -3.39548,14.40427c-2.37826,2.23836 -3.92117,2.95561 -7.18359,3.08984c-3.84869,-0.24646 -6.19057,-0.62046 -9.31641,-2.96484c-2.2492,-3.18636 -2.62611,-5.75904 -2.64044,-9.55222c-0.00571,-0.90562 -0.01142,-1.81125 -0.01731,-2.74432c-0.00111,-0.99124 -0.00223,-1.98248 -0.00338,-3.00375c-0.00497,-1.0458 -0.00993,-2.09159 -0.01505,-3.16907c-0.01463,-3.46595 -0.02142,-6.93185 -0.02695,-10.39783c-0.00575,-2.40512 -0.0115,-4.81024 -0.01727,-7.21536c-0.01051,-5.04556 -0.01635,-10.09111 -0.01983,-15.13669c-0.00549,-6.46882 -0.02953,-12.93743 -0.05798,-19.40619c-0.01861,-4.96878 -0.02383,-9.93752 -0.02536,-14.90634c-0.00303,-2.38505 -0.01107,-4.7701 -0.02419,-7.15512c-0.01703,-3.33484 -0.01518,-6.66916 -0.00869,-10.00403c-0.00921,-0.98719 -0.01842,-1.97438 -0.02792,-2.99148c0.03026,-4.9508 0.09007,-8.4601 3.38437,-12.4426c3.66939,-2.87601 6.37381,-3.66088 11,-3z"/>
  <path id="svg_10" fill="#fd3f92" d="m57,195c2.99452,2.24589 3.81623,3.44869 5,7c0.09484,1.47343 0.13486,2.95075 0.14044,4.42722c0.00857,1.35844 0.00857,1.35844 0.01731,2.74432c0.00111,0.99124 0.00223,1.98248 0.00338,3.00375c0.00497,1.0458 0.00993,2.09159 0.01505,3.16907c0.01463,3.46595 0.02142,6.93185 0.02695,10.39783c0.00575,2.40512 0.0115,4.81024 0.01727,7.21536c0.01051,5.04556 0.01635,10.09111 0.01983,15.13669c0.00549,6.46882 0.02953,12.93743 0.05798,19.40619c0.01861,4.96878 0.02383,9.93752 0.02536,14.90634c0.00303,2.38505 0.01107,4.7701 0.02419,7.15512c0.01703,3.33484 0.01518,6.66916 0.00869,10.00403c0.00921,0.98719 0.01842,1.97438 0.02792,2.99148c-0.03026,4.9508 -0.09007,8.4601 -3.38437,12.4426c-2.71425,2.12738 -4.52393,2.9291 -7.9375,3.4375c-3.98933,-0.5699 -6.01972,-1.80964 -9.0625,-4.4375c-2.42633,-5.287 -2.28968,-10.419 -2.27466,-16.11694c-0.00511,-1.00401 -0.01022,-2.00801 -0.01549,-3.04244c-0.01387,-3.31021 -0.01294,-6.62022 -0.01063,-9.93046c-0.00389,-2.30637 -0.00822,-4.61273 -0.01299,-6.91909c-0.00745,-4.83095 -0.00717,-9.66183 -0.0019,-14.49278c0.00579,-6.18495 -0.01115,-12.3696 -0.03435,-18.55449c-0.01474,-4.76214 -0.01561,-9.52421 -0.01249,-14.28636c-0.00051,-2.28012 -0.00574,-4.56025 -0.01581,-6.84035c-0.01236,-3.19044 -0.00558,-6.38031 0.00601,-9.57075c-0.00765,-0.93789 -0.01529,-1.87577 -0.02317,-2.84207c0.04458,-5.56719 0.73959,-9.47942 3.39548,-14.40427c4.15944,-3.91477 8.77547,-3.45506 14,-2z"/>
  <path id="svg_11" fill="#fd3f92" d="m178,225c3.51878,1.9869 5.69792,4.09376 7,8c0.10107,1.49217 0.1483,2.98835 0.16113,4.48389c0.00961,0.90459 0.01922,1.80918 0.02912,2.74118c0.00425,0.97502 0.0085,1.95005 0.01288,2.95462c0.0057,1.00491 0.0114,2.00983 0.01727,3.04519c0.00945,2.12669 0.01598,4.25339 0.01983,6.3801c0.00971,3.25042 0.04074,6.50021 0.07227,9.75049c0.00653,2.0664 0.01178,4.13281 0.01563,6.19922c0.01234,0.97097 0.02469,1.94195 0.03741,2.94235c-0.02028,6.15632 -0.75368,9.69763 -5.05304,14.31546c-3.42638,1.75949 -6.60232,1.9566 -10.3125,1.1875c-3.0007,-1.62619 -5.50572,-3.56059 -6.65108,-6.89601c-0.36632,-2.20894 -0.48292,-4.27879 -0.49418,-6.51781c-0.00638,-0.86447 -0.01276,-1.72894 -0.01934,-2.61961c-0.00167,-1.38918 -0.00167,-1.38918 -0.00337,-2.80641c-0.00333,-0.95911 -0.00666,-1.91822 -0.01008,-2.90639c-0.00506,-2.02656 -0.00741,-4.05313 -0.00725,-6.0797c-0.00219,-3.09657 -0.02036,-6.19279 -0.03931,-9.2893c-0.00293,-1.97071 -0.00492,-3.94141 -0.00586,-5.91211c-0.00718,-0.9241 -0.01437,-1.84819 -0.02177,-2.80028c0.0207,-5.8389 0.26996,-10.01519 4.37724,-14.48488c3.67046,-2.1544 6.77092,-2.63336 10.875,-1.6875z"/>
  <path id="svg_12" fill="#fd3f92" d="m506,225c2.81003,1.79364 4.5094,3.01881 6,6c0.11021,1.57644 0.1591,3.15737 0.177,4.73755c0.01284,0.98475 0.02567,1.96949 0.0389,2.98408c0.00738,1.06769 0.01477,2.13537 0.02238,3.2354c0.00807,1.09512 0.01614,2.19023 0.02446,3.31853c0.01385,2.32097 0.02457,4.64196 0.03243,6.96297c0.01721,3.54913 0.06109,7.09734 0.10522,10.64624c0.01013,2.25324 0.01864,4.5065 0.02539,6.75976c0.01751,1.06161 0.03502,2.12322 0.05306,3.217c-0.02173,7.38193 -0.02173,7.38193 -2.38045,11.28569c-3.31983,2.93126 -5.6327,3.13586 -10.06323,3.07153c-2.97291,-0.31954 -4.74514,-1.33285 -7.03516,-3.21875c-1.84923,-3.00108 -2.2552,-5.28163 -2.27466,-8.78101c-0.00953,-0.94455 -0.01906,-1.88911 -0.02888,-2.86229c0.00091,-1.01361 0.00182,-2.02722 0.00276,-3.07154c-0.00429,-1.0479 -0.00857,-2.09579 -0.01299,-3.17543c-0.00574,-2.21488 -0.00624,-4.42977 -0.0019,-6.64464c0.00315,-3.38648 -0.0203,-6.77208 -0.04566,-10.15845c-0.00227,-2.15299 -0.00297,-4.30599 -0.00195,-6.45898c-0.00921,-1.01159 -0.01842,-2.02318 -0.02791,-3.06542c0.05765,-8.77202 0.05765,-8.77202 3.39119,-12.78224c3.45467,-2.68697 7.80526,-2.69912 12,-2z"/>
  <path id="svg_13" fill="#fd3f92" d="m14,225c3.85895,1.67781 5.44312,3.14556 7,7c0.2607,2.26964 0.2607,2.26964 0.27466,4.78101c0.0143,1.41683 0.0143,1.41683 0.02888,2.86229c-0.00091,1.01361 -0.00182,2.02722 -0.00276,3.07154c0.00429,1.0479 0.00857,2.09579 0.01299,3.17543c0.00574,2.21488 0.00624,4.42977 0.0019,6.64464c-0.00315,3.38648 0.0203,6.77208 0.04566,10.15845c0.00227,2.15299 0.00297,4.30599 0.00195,6.45898c0.00921,1.01159 0.01842,2.02318 0.02791,3.06542c-0.05765,8.77202 -0.05765,8.77202 -3.39119,12.78224c-3.01002,2.34113 -6.27742,2.41217 -10.03125,2.32813c-3.11192,-0.51866 -4.81943,-2.11368 -6.96875,-4.32813c-1.21442,-2.42884 -1.14624,-4.02288 -1.177,-6.73755c-0.01925,-1.47712 -0.01925,-1.47712 -0.0389,-2.98408c-0.00738,-1.06769 -0.01477,-2.13537 -0.02238,-3.2354c-0.00807,-1.09512 -0.01614,-2.19023 -0.02446,-3.31853c-0.01385,-2.32097 -0.02457,-4.64196 -0.03243,-6.96297c-0.01721,-3.54913 -0.06109,-7.09734 -0.10522,-10.64624c-0.01013,-2.25324 -0.01864,-4.5065 -0.02539,-6.75976c-0.01751,-1.06161 -0.03502,-2.12322 -0.05306,-3.217c0.02173,-7.38193 0.02173,-7.38193 2.38045,-11.28569c3.74942,-3.31057 7.25373,-3.37351 12.09839,-2.85278z"/>
 </g>
</svg>